<?xml version="1.0" encoding="UTF-8" standalone="no"?>
<!-- Created with Inkscape (http://www.inkscape.org/) -->

<svg
   xmlns:dc="http://purl.org/dc/elements/1.1/"
   xmlns:cc="http://creativecommons.org/ns#"
   xmlns:rdf="http://www.w3.org/1999/02/22-rdf-syntax-ns#"
   xmlns:svg="http://www.w3.org/2000/svg"
   xmlns="http://www.w3.org/2000/svg"
   xmlns:sodipodi="http://sodipodi.sourceforge.net/DTD/sodipodi-0.dtd"
   xmlns:inkscape="http://www.inkscape.org/namespaces/inkscape"
   width="32"
   height="32"
   viewBox="0 0 32 32.000001"
   id="svg2"
   version="1.1"
   inkscape:version="0.92.2 (5c3e80d, 2017-08-06)"
   sodipodi:docname="ghost.svg"
   inkscape:export-filename="C:\Users\Zachery\Desktop\ddr\img\left3.png"
   inkscape:export-xdpi="720"
   inkscape:export-ydpi="720">
  <defs
     id="defs4" />
  <sodipodi:namedview
     id="base"
     pagecolor="#ffffff"
     bordercolor="#666666"
     borderopacity="1.0"
     inkscape:pageopacity="0.0"
     inkscape:pageshadow="2"
     inkscape:zoom="5.6568545"
     inkscape:cx="28.633285"
     inkscape:cy="22.506243"
     inkscape:document-units="px"
     inkscape:current-layer="layer1"
     showgrid="false"
     units="px"
     inkscape:object-nodes="true"
     inkscape:window-width="1920"
     inkscape:window-height="1001"
     inkscape:window-x="-9"
     inkscape:window-y="-9"
     inkscape:window-maximized="1"
     inkscape:snap-center="false"
     inkscape:snap-global="true"
     inkscape:snap-bbox="false"
     inkscape:snap-nodes="true"
     inkscape:bbox-nodes="true">
    <inkscape:grid
       type="xygrid"
       id="grid4147"
       empspacing="4"
       spacingx="0.5"
       spacingy="0.50000002"
       color="#ffd23f"
       opacity="0.27058824"
       empcolor="#ffa43f"
       empopacity="0.51372549" />
  </sodipodi:namedview>
  <metadata
     id="metadata7">
    <rdf:RDF>
      <cc:Work
         rdf:about="">
        <dc:format>image/svg+xml</dc:format>
        <dc:type
           rdf:resource="http://purl.org/dc/dcmitype/StillImage" />
        <dc:title />
      </cc:Work>
    </rdf:RDF>
  </metadata>
  <g
     inkscape:label="Layer 1"
     inkscape:groupmode="layer"
     id="layer1"
     transform="translate(0,-1020.3622)">
    <path
       style="color:#000000;font-style:normal;font-variant:normal;font-weight:normal;font-stretch:normal;font-size:medium;line-height:normal;font-family:sans-serif;text-indent:0;text-align:start;text-decoration:none;text-decoration-line:none;text-decoration-style:solid;text-decoration-color:#000000;letter-spacing:normal;word-spacing:normal;text-transform:none;direction:ltr;block-progression:tb;writing-mode:lr-tb;baseline-shift:baseline;text-anchor:start;white-space:normal;clip-rule:nonzero;display:inline;overflow:visible;visibility:visible;opacity:1;isolation:auto;mix-blend-mode:normal;color-interpolation:sRGB;color-interpolation-filters:linearRGB;solid-color:#000000;solid-opacity:1;fill:#ffffff;fill-opacity:1;fill-rule:nonzero;stroke:none;stroke-width:12;stroke-linecap:butt;stroke-linejoin:miter;stroke-miterlimit:4;stroke-dasharray:none;stroke-dashoffset:1.00790524;stroke-opacity:1;color-rendering:auto;image-rendering:auto;shape-rendering:auto;text-rendering:auto;enable-background:accumulate"
       d="M 13.513672 0 L 0 13.515625 L 0 18.484375 L 13.515625 32 L 18.484375 32 L 22 28.484375 L 22 23.513672 L 20.486328 22 L 28.484375 22 L 32 18.484375 L 32 13.509766 L 28.490234 10 L 20.482422 10 L 22 8.4824219 L 22 3.5097656 L 18.490234 0 L 13.513672 0 z M 14.341797 2 L 17.660156 2 L 20 4.3398438 L 20 7.6542969 L 15.65625 12 L 27.660156 12 L 30 14.339844 L 30 17.65625 L 27.65625 19.998047 L 15.658203 19.998047 L 20 24.337891 L 20 27.654297 L 17.65625 29.998047 L 14.345703 29.998047 L 14.34375 29.998047 L 2 17.654297 L 2 14.341797 L 14.341797 2 z "
       transform="translate(0,1020.3622)"
       id="path4137" />
    <path
       sodipodi:nodetypes="cccccccccccccccccccccccccccccccccccccccccccccccccc"
       style="color:#000000;font-style:normal;font-variant:normal;font-weight:normal;font-stretch:normal;font-size:medium;line-height:normal;font-family:sans-serif;text-indent:0;text-align:start;text-decoration:none;text-decoration-line:none;text-decoration-style:solid;text-decoration-color:#000000;letter-spacing:normal;word-spacing:normal;text-transform:none;direction:ltr;block-progression:tb;writing-mode:lr-tb;baseline-shift:baseline;text-anchor:start;white-space:normal;clip-rule:nonzero;display:inline;overflow:visible;visibility:visible;opacity:1;isolation:auto;mix-blend-mode:normal;color-interpolation:sRGB;color-interpolation-filters:linearRGB;solid-color:#000000;solid-opacity:1;fill:#ffffff;fill-opacity:0.5;fill-rule:nonzero;stroke:none;stroke-width:8;stroke-linecap:butt;stroke-linejoin:miter;stroke-miterlimit:4;stroke-dasharray:none;stroke-dashoffset:1.00790524;stroke-opacity:1;color-rendering:auto;image-rendering:auto;shape-rendering:auto;text-rendering:auto;enable-background:accumulate"
       d="M 14.3437,1050.3603 2,1038.0165 l 0,-3.3125 12.3418,-12.3418 3.3184,0 2.3398,2.3398 0,3.3145 -4.3438,4.3457 12.004,0 2.3398,2.3398 0,3.3165 -2.3437,2.3418 -11.9981,0 4.3418,4.3398 0,3.3164 -2.3438,2.3438 -3.3105,0 0,0 z m 0.8282,-2.004 1.6562,0 1.1719,-1.1718 0,-1.6563 -7.9258,-7.9258 0,-2.4921 7.9258,-7.9258 0,-1.6563 -1.1699,-1.1699 -1.6602,0 -11.1719,11.1699 0,1.6563 z m -2.9278,-9.998 7.0079,0 -0.7559,-0.7559 0,-2.4921 0.7519,-0.752 -7.0078,0 -1.1738,1.1738 0.01,1.6563 z m 8.4219,0 6.1621,0 1.1699,-1.1719 0,-1.6582 -1.1699,-1.1699 -6.1679,0 -1.1739,1.1738 0.01,1.6563 z"
       id="path4290"
       inkscape:connector-curvature="0" />
  </g>
</svg>
