<?xml version="1.0" encoding="UTF-8" standalone="no"?>
<!-- Created with Inkscape (http://www.inkscape.org/) -->

<svg
   xmlns:dc="http://purl.org/dc/elements/1.1/"
   xmlns:cc="http://creativecommons.org/ns#"
   xmlns:rdf="http://www.w3.org/1999/02/22-rdf-syntax-ns#"
   xmlns:svg="http://www.w3.org/2000/svg"
   xmlns="http://www.w3.org/2000/svg"
   xmlns:sodipodi="http://sodipodi.sourceforge.net/DTD/sodipodi-0.dtd"
   xmlns:inkscape="http://www.inkscape.org/namespaces/inkscape"
   width="16"
   height="16"
   viewBox="0 0 16 16"
   id="svg2"
   version="1.1"
   inkscape:version="0.92.2 (5c3e80d, 2017-08-06)"
   sodipodi:docname="nav_options.svg"
   inkscape:export-filename="C:\Users\Zachery\Desktop\ddr\img\left3.png"
   inkscape:export-xdpi="720"
   inkscape:export-ydpi="720">
  <defs
     id="defs4" />
  <sodipodi:namedview
     id="base"
     pagecolor="#ffffff"
     bordercolor="#666666"
     borderopacity="1.0"
     inkscape:pageopacity="0.0"
     inkscape:pageshadow="2"
     inkscape:zoom="16"
     inkscape:cx="14.611967"
     inkscape:cy="7.85104"
     inkscape:document-units="px"
     inkscape:current-layer="layer1"
     showgrid="false"
     units="px"
     inkscape:object-nodes="true"
     inkscape:window-width="1920"
     inkscape:window-height="1001"
     inkscape:window-x="-9"
     inkscape:window-y="-9"
     inkscape:window-maximized="1"
     inkscape:snap-center="false"
     inkscape:snap-global="true"
     inkscape:snap-bbox="true"
     inkscape:snap-nodes="true"
     inkscape:bbox-nodes="true">
    <inkscape:grid
       type="xygrid"
       id="grid4147"
       empspacing="4"
       spacingx="1"
       spacingy="1"
       color="#d20000"
       opacity="0.2"
       empcolor="#a40000"
       empopacity="0.6"
       units="px" />
  </sodipodi:namedview>
  <metadata
     id="metadata7">
    <rdf:RDF>
      <cc:Work
         rdf:about="">
        <dc:format>image/svg+xml</dc:format>
        <dc:type
           rdf:resource="http://purl.org/dc/dcmitype/StillImage" />
        <dc:title></dc:title>
      </cc:Work>
    </rdf:RDF>
  </metadata>
  <g
     inkscape:label="Layer 1"
     inkscape:groupmode="layer"
     id="layer1"
     transform="translate(0,-1036.3622)">
    <rect
       ry="4.0000172"
       rx="4.0000172"
       y="1037.3622"
       x="1"
       height="14.000017"
       width="14"
       id="rect833"
       style="opacity:1;fill:#808080;fill-opacity:1;stroke:none;stroke-width:4;stroke-linecap:round;stroke-linejoin:miter;stroke-miterlimit:4;stroke-dasharray:none;stroke-opacity:1" />
    <path
       inkscape:connector-curvature="0"
       style="color:#000000;font-style:normal;font-variant:normal;font-weight:normal;font-stretch:normal;font-size:medium;line-height:normal;font-family:sans-serif;font-variant-ligatures:normal;font-variant-position:normal;font-variant-caps:normal;font-variant-numeric:normal;font-variant-alternates:normal;font-feature-settings:normal;text-indent:0;text-align:start;text-decoration:none;text-decoration-line:none;text-decoration-style:solid;text-decoration-color:#000000;letter-spacing:normal;word-spacing:normal;text-transform:none;writing-mode:lr-tb;direction:ltr;text-orientation:mixed;dominant-baseline:auto;baseline-shift:baseline;text-anchor:start;white-space:normal;shape-padding:0;clip-rule:nonzero;display:inline;overflow:visible;visibility:visible;opacity:1;isolation:auto;mix-blend-mode:normal;color-interpolation:sRGB;color-interpolation-filters:linearRGB;solid-color:#000000;solid-opacity:1;vector-effect:none;fill:#000000;fill-opacity:1;fill-rule:nonzero;stroke:none;stroke-width:4;stroke-linecap:round;stroke-linejoin:miter;stroke-miterlimit:4;stroke-dasharray:none;stroke-dashoffset:0;stroke-opacity:1;color-rendering:auto;image-rendering:auto;shape-rendering:auto;text-rendering:auto;enable-background:accumulate"
       d="m 4,1036.3622 c -2.2160095,0 -4,1.784 -4,4 v 8 c 0,2.216 1.7839905,4 4,4 h 8 c 2.21601,0 4,-1.784 4,-4 v -8 c 0,-2.216 -1.78399,-4 -4,-4 z m 0,2 h 8 c 1.142604,0 2,0.8574 2,2 v 8 c 0,1.1426 -0.857396,2 -2,2 H 4 c -1.142604,0 -2,-0.8574 -2,-2 v -8 c 0,-1.1426 0.857396,-2 2,-2 z"
       id="rect831" />
    <g
       id="g1166"
       transform="matrix(0.3131125,0,0,0.3131125,-3.262288,719.87404)">
      <path
         sodipodi:nodetypes="cccccccccccccccccccccccccccccccccccccccccc"
         inkscape:connector-curvature="0"
         id="path4137"
         d="m 33.509705,1020.3623 -3.509708,3.5097 -2.4e-5,6.4902 h -6.484344 l -3.515677,3.5156 5.3e-5,4.9746 3.509712,3.5098 h 6.490242 l 4.5e-5,6.4844 3.515612,3.5156 h 4.968724 l 3.515607,-3.5155 2.5e-5,-6.4845 6.484343,10e-5 3.515677,-3.5157 -5.2e-5,-4.9687 -3.515611,-3.5157 h -6.484344 l -4.4e-5,-6.4843 -3.515613,-3.5157 z m 1.49028,2.9999 h 1.999991 l 2,2 -3.2e-5,8.0001 8.000032,-10e-5 2,2 1e-5,2 -1.999981,2 h -8.000032 l -3.3e-5,8.0001 -1.999981,1.9999 h -1.999991 l -1.999999,-2 3.2e-5,-8 h -8.000032 l -2,-2 -10e-6,-2 1.999981,-1.9999 8.000032,-10e-5 3.3e-5,-8 z"
         style="color:#000000;font-style:normal;font-variant:normal;font-weight:normal;font-stretch:normal;font-size:medium;line-height:normal;font-family:sans-serif;text-indent:0;text-align:start;text-decoration:none;text-decoration-line:none;text-decoration-style:solid;text-decoration-color:#000000;letter-spacing:normal;word-spacing:normal;text-transform:none;writing-mode:lr-tb;direction:ltr;baseline-shift:baseline;text-anchor:start;white-space:normal;clip-rule:nonzero;display:inline;overflow:visible;visibility:visible;opacity:1;isolation:auto;mix-blend-mode:normal;color-interpolation:sRGB;color-interpolation-filters:linearRGB;solid-color:#000000;solid-opacity:1;fill:#000000;fill-opacity:1;fill-rule:nonzero;stroke:none;stroke-width:12;stroke-linecap:butt;stroke-linejoin:miter;stroke-miterlimit:4;stroke-dasharray:none;stroke-dashoffset:1.00790524;stroke-opacity:1;color-rendering:auto;image-rendering:auto;shape-rendering:auto;text-rendering:auto;enable-background:accumulate" />
      <path
         id="path4290"
         transform="translate(0,1036.3622)"
         d="M 34.339844,-14 32,-11.660156 V -4 H 24.34375 L 22,-1.65625 V 1.6601562 L 24.339844,4 H 32 v 7.658203 L 34.341797,14 h 3.3125 L 40,11.654297 V 4 h 7.658203 L 50,1.6582031 v -3.3125 L 47.654297,-4 h -7.65625 v -7.65625 l -2.34375,-2.341797 z m 0.826172,2.001953 h 1.658203 l 1.169922,1.171875 0.002,4.0800782 L 37.242188,-7.5 h -2.484376 l -0.761718,0.7617188 -0.002,-4.0878908 z M 35.171875,-6.5 h 1.65625 l 1.167969,1.1679688 0.002,2.6269531 -1.169922,1.1699219 h -0.002 -1.654297 L 34,-2.7070312 v -0.828125 H 33.998 V -5.3300781 L 34,-5.328125 Z m -10,4.5 h 4.085937 L 28.5,-1.2421875 v 2.484375 L 29.257812,2 H 25.171875 L 24.001953,0.83007812 V -0.828125 Z m 5.5,0 h 1.792969 0.828125 l 1.171875,1.171875 v 1.65625 L 33.292969,2 H 32.464844 30.671875 L 29.5,0.828125 v -1.65625 z m 8.035156,0 h 0.828125 1.792969 L 42.5,-0.828125 v 1.65625 L 41.328125,2 H 39.535156 38.707031 L 37.535156,0.828125 v -1.65625 z m 4.035157,0 H 45 46.824219 l 1.177734,1.17773438 v 1.65625 L 46.835938,2 h -4.09375 L 43.5,1.2421875 v -2.484375 z m -7.570313,3.5351562 h 1.65625 L 38,2.7070312 V 3.5351562 5.328125 L 36.828125,6.5 h -1.65625 L 34,5.328125 V 3.5351562 2.7070312 Z M 34,6.7421875 34.757812,7.5 h 2.484376 L 38,6.7421875 v 4.0820315 l -1.177734,1.177734 h -1.65625 L 34,10.835938 Z"
         style="color:#000000;font-style:normal;font-variant:normal;font-weight:normal;font-stretch:normal;font-size:medium;line-height:normal;font-family:sans-serif;text-indent:0;text-align:start;text-decoration:none;text-decoration-line:none;text-decoration-style:solid;text-decoration-color:#000000;letter-spacing:normal;word-spacing:normal;text-transform:none;writing-mode:lr-tb;direction:ltr;baseline-shift:baseline;text-anchor:start;white-space:normal;clip-rule:nonzero;display:inline;overflow:visible;visibility:visible;opacity:1;isolation:auto;mix-blend-mode:normal;color-interpolation:sRGB;color-interpolation-filters:linearRGB;solid-color:#000000;solid-opacity:1;fill:#ffffff;fill-opacity:1;fill-rule:nonzero;stroke:none;stroke-width:8;stroke-linecap:butt;stroke-linejoin:miter;stroke-miterlimit:4;stroke-dasharray:none;stroke-dashoffset:1.00790524;stroke-opacity:1;color-rendering:auto;image-rendering:auto;shape-rendering:auto;text-rendering:auto;enable-background:accumulate"
         inkscape:connector-curvature="0" />
    </g>
  </g>
</svg>
