<?xml version="1.0" encoding="UTF-8" standalone="no"?>
<!-- Created with Inkscape (http://www.inkscape.org/) -->

<svg
   xmlns:dc="http://purl.org/dc/elements/1.1/"
   xmlns:cc="http://creativecommons.org/ns#"
   xmlns:rdf="http://www.w3.org/1999/02/22-rdf-syntax-ns#"
   xmlns:svg="http://www.w3.org/2000/svg"
   xmlns="http://www.w3.org/2000/svg"
   xmlns:xlink="http://www.w3.org/1999/xlink"
   xmlns:sodipodi="http://sodipodi.sourceforge.net/DTD/sodipodi-0.dtd"
   xmlns:inkscape="http://www.inkscape.org/namespaces/inkscape"
   width="96"
   height="32"
   viewBox="0 0 96 32.000001"
   id="svg2"
   version="1.1"
   inkscape:version="0.92.2 (5c3e80d, 2017-08-06)"
   sodipodi:docname="select-2-player.svg"
   inkscape:export-filename="C:\Users\Zachery\Desktop\ddr\img\left3.png"
   inkscape:export-xdpi="720"
   inkscape:export-ydpi="720">
  <defs
     id="defs4">
    <linearGradient
       inkscape:collect="always"
       id="linearGradient859">
      <stop
         style="stop-color:#ff3f40;stop-opacity:1"
         offset="0"
         id="stop855" />
      <stop
         style="stop-color:#c0403f;stop-opacity:1"
         offset="1"
         id="stop857" />
    </linearGradient>
    <linearGradient
       inkscape:collect="always"
       xlink:href="#linearGradient859"
       id="linearGradient861"
       x1="48"
       y1="1021.3622"
       x2="48"
       y2="1051.3622"
       gradientUnits="userSpaceOnUse" />
  </defs>
  <sodipodi:namedview
     id="base"
     pagecolor="#ffffff"
     bordercolor="#666666"
     borderopacity="1.0"
     inkscape:pageopacity="0.0"
     inkscape:pageshadow="2"
     inkscape:zoom="11.313709"
     inkscape:cx="49.953862"
     inkscape:cy="5.9179745"
     inkscape:document-units="px"
     inkscape:current-layer="layer1"
     showgrid="false"
     units="px"
     inkscape:object-nodes="true"
     inkscape:window-width="1920"
     inkscape:window-height="1001"
     inkscape:window-x="-9"
     inkscape:window-y="-9"
     inkscape:window-maximized="1"
     inkscape:snap-center="false"
     inkscape:snap-global="true"
     inkscape:snap-bbox="true"
     inkscape:snap-nodes="true"
     inkscape:bbox-nodes="true"
     borderlayer="false">
    <inkscape:grid
       type="xygrid"
       id="grid4147"
       empspacing="4"
       spacingx="1"
       spacingy="1"
       color="#ffd23f"
       opacity="0.27058824"
       empcolor="#ffa43f"
       empopacity="0.51372549"
       units="px" />
  </sodipodi:namedview>
  <metadata
     id="metadata7">
    <rdf:RDF>
      <cc:Work
         rdf:about="">
        <dc:format>image/svg+xml</dc:format>
        <dc:type
           rdf:resource="http://purl.org/dc/dcmitype/StillImage" />
        <dc:title />
      </cc:Work>
    </rdf:RDF>
  </metadata>
  <g
     inkscape:label="Layer 1"
     inkscape:groupmode="layer"
     id="layer1"
     transform="translate(0,-1020.3622)">
    <rect
       ry="3.0000174"
       rx="3.0000174"
       y="1021.3622"
       x="1"
       height="30.000017"
       width="94"
       id="rect848"
       style="opacity:1;fill:url(#linearGradient861);fill-opacity:1;stroke:none;stroke-width:4;stroke-linecap:round;stroke-linejoin:miter;stroke-miterlimit:4;stroke-dasharray:none;stroke-opacity:0.46629214" />
    <rect
       ry="4.0000172"
       rx="4.0000172"
       y="1020.3622"
       x="0"
       height="32"
       width="96"
       id="rect846"
       style="opacity:1;fill:none;fill-opacity:1;stroke:none;stroke-width:4;stroke-linecap:round;stroke-linejoin:miter;stroke-miterlimit:4;stroke-dasharray:none;stroke-opacity:0.46629214" />
    <path
       style="color:#000000;font-style:normal;font-variant:normal;font-weight:normal;font-stretch:normal;font-size:medium;line-height:normal;font-family:sans-serif;font-variant-ligatures:normal;font-variant-position:normal;font-variant-caps:normal;font-variant-numeric:normal;font-variant-alternates:normal;font-feature-settings:normal;text-indent:0;text-align:start;text-decoration:none;text-decoration-line:none;text-decoration-style:solid;text-decoration-color:#000000;letter-spacing:normal;word-spacing:normal;text-transform:none;writing-mode:lr-tb;direction:ltr;text-orientation:mixed;dominant-baseline:auto;baseline-shift:baseline;text-anchor:start;white-space:normal;shape-padding:0;clip-rule:nonzero;display:inline;overflow:visible;visibility:visible;opacity:1;isolation:auto;mix-blend-mode:normal;color-interpolation:sRGB;color-interpolation-filters:linearRGB;solid-color:#000000;solid-opacity:1;vector-effect:none;fill:#000000;fill-opacity:0.9044944;fill-rule:nonzero;stroke:none;stroke-width:4;stroke-linecap:round;stroke-linejoin:miter;stroke-miterlimit:4;stroke-dasharray:none;stroke-dashoffset:0;stroke-opacity:1;color-rendering:auto;image-rendering:auto;shape-rendering:auto;text-rendering:auto;enable-background:accumulate"
       d="M 4 0 C 1.7839905 0 0 1.7839905 0 4 L 0 28 C 0 30.21601 1.7839905 32 4 32 L 92 32 C 94.21601 32 96 30.21601 96 28 L 96 4 C 96 1.7839905 94.21601 0 92 0 L 4 0 z M 4 2 L 92 2 C 93.142604 2 94 2.8574 94 4 L 94 28 C 94 29.1426 93.142604 30 92 30 L 4 30 C 2.857396 30 2 29.1426 2 28 L 2 4 C 2 2.8574 2.857396 2 4 2 z "
       id="rect844"
       transform="translate(0,1020.3622)" />
    <path
       inkscape:connector-curvature="0"
       id="path839"
       style="font-style:normal;font-weight:bold;font-size:medium;line-height:1.25;font-family:sans-serif;letter-spacing:0px;word-spacing:0px;fill:none;fill-opacity:1;stroke:#000000;stroke-width:2;stroke-miterlimit:4;stroke-dasharray:none;stroke-opacity:1"
       d="M 23.441885,1041.3622 H 16.73509 v -1.6521 q 0.768787,-0.6515 1.537572,-1.3835 0.774523,-0.732 1.239237,-1.2626 0.694201,-0.7858 0.986799,-1.37 0.292598,-0.5843 0.292598,-1.1552 0,-0.685 -0.378656,-1.0544 -0.372919,-0.3761 -1.078595,-0.3761 -0.527823,0 -1.113018,0.2552 -0.579458,0.2552 -1.078594,0.6515 h -0.183591 v -2.223 q 0.407341,-0.2082 1.199076,-0.4164 0.797471,-0.2082 1.594943,-0.2082 1.606418,0 2.449788,0.7925 0.843369,0.7858 0.843369,2.2297 0,0.9469 -0.407341,1.7999 -0.401605,0.8529 -1.233501,1.7595 -0.522085,0.5642 -1.049908,1.041 -0.527823,0.4701 -0.751574,0.6582 h 3.838191 z" />
    <path
       inkscape:connector-curvature="0"
       id="path841"
       style="font-style:normal;font-weight:bold;font-size:medium;line-height:1.25;font-family:sans-serif;letter-spacing:0px;word-spacing:0px;fill:none;fill-opacity:1;stroke:#000000;stroke-width:2;stroke-miterlimit:4;stroke-dasharray:none;stroke-opacity:1"
       d="m 36.184221,1034.5187 q 0,0.6716 -0.200802,1.3163 -0.200802,0.638 -0.573721,1.0745 -0.510611,0.591 -1.141704,0.8933 -0.625355,0.3022 -1.56052,0.3022 h -1.371193 v 3.2572 h -2.203087 v -10 h 3.625915 q 0.814683,0 1.371192,0.1679 0.562246,0.1612 0.992537,0.4902 0.516349,0.3963 0.785997,1.0141 0.275386,0.6179 0.275386,1.4843 z m -2.27767,0.06 q 0,-0.4231 -0.195066,-0.7253 -0.195065,-0.3089 -0.45324,-0.4298 -0.344232,-0.1612 -0.671252,-0.1746 -0.327021,-0.02 -0.872056,-0.02 h -0.378656 v 2.9953 h 0.631093 q 0.562247,0 0.923691,-0.081 0.36718,-0.081 0.61388,-0.3224 0.212278,-0.2149 0.304072,-0.5104 0.09753,-0.3022 0.09753,-0.7321 z" />
    <path
       inkscape:connector-curvature="0"
       id="path843"
       style="font-style:normal;font-weight:bold;font-size:medium;line-height:1.25;font-family:sans-serif;letter-spacing:0px;word-spacing:0px;fill:none;fill-opacity:1;stroke:#000000;stroke-width:2;stroke-miterlimit:4;stroke-dasharray:none;stroke-opacity:1"
       d="m 43.900764,1041.3622 h -6.16176 v -10 h 2.203087 v 8.0658 h 3.958673 z" />
    <path
       inkscape:connector-curvature="0"
       id="path845"
       style="font-style:normal;font-weight:bold;font-size:medium;line-height:1.25;font-family:sans-serif;letter-spacing:0px;word-spacing:0px;fill:none;fill-opacity:1;stroke:#000000;stroke-width:2;stroke-miterlimit:4;stroke-dasharray:none;stroke-opacity:1"
       d="m 53.114719,1041.3622 h -2.277671 l -0.590932,-2.0215 h -3.166939 l -0.590932,2.0215 h -2.220299 l 3.155464,-10 h 2.535845 z m -3.402164,-3.8549 -1.049908,-3.5863 -1.049909,3.5863 z" />
    <path
       inkscape:connector-curvature="0"
       id="path847"
       style="font-style:normal;font-weight:bold;font-size:medium;line-height:1.25;font-family:sans-serif;letter-spacing:0px;word-spacing:0px;fill:none;fill-opacity:1;stroke:#000000;stroke-width:2;stroke-miterlimit:4;stroke-dasharray:none;stroke-opacity:1"
       d="m 61.869695,1031.3622 -3.149726,6.1316 v 3.8684 h -2.203087 v -3.7475 l -3.201362,-6.2525 h 2.501423 l 1.84738,3.8684 1.784272,-3.8684 z" />
    <path
       inkscape:connector-curvature="0"
       id="path849"
       style="font-style:normal;font-weight:bold;font-size:medium;line-height:1.25;font-family:sans-serif;letter-spacing:0px;word-spacing:0px;fill:none;fill-opacity:1;stroke:#000000;stroke-width:2;stroke-miterlimit:4;stroke-dasharray:none;stroke-opacity:1"
       d="m 69.184637,1041.3622 h -6.178972 v -10 h 6.178972 v 1.9342 h -3.987359 v 1.726 h 3.700498 v 1.9341 h -3.700498 v 2.4715 h 3.987359 z" />
    <path
       inkscape:connector-curvature="0"
       id="path851"
       style="font-style:normal;font-weight:bold;font-size:medium;line-height:1.25;font-family:sans-serif;letter-spacing:0px;word-spacing:0px;fill:none;fill-opacity:1;stroke:#000000;stroke-width:2;stroke-miterlimit:4;stroke-dasharray:none;stroke-opacity:1"
       d="m 75.828322,1034.4246 q 0,-0.376 -0.131956,-0.6447 -0.131956,-0.2686 -0.453239,-0.4231 -0.223751,-0.1074 -0.522086,-0.1276 -0.298335,-0.027 -0.694202,-0.027 h -0.797472 v 2.6931 h 0.676991 q 0.527822,0 0.883529,-0.061 0.355707,-0.061 0.59667,-0.2754 0.229489,-0.2082 0.332758,-0.4567 0.109007,-0.2552 0.109007,-0.6783 z m 3.436587,6.9376 h -2.69075 l -2.329306,-3.6669 h -1.015486 v 3.6669 h -2.191613 v -10 h 3.694761 q 0.757312,0 1.302347,0.1007 0.545034,0.1007 1.021222,0.4365 0.481925,0.3358 0.763049,0.8731 0.28686,0.5306 0.28686,1.3365 0,1.1081 -0.441765,1.8066 -0.436027,0.6984 -1.250711,1.1618 z" />
    <path
       inkscape:connector-curvature="0"
       id="path824"
       style="font-style:normal;font-weight:bold;font-size:medium;line-height:1.25;font-family:sans-serif;letter-spacing:0px;word-spacing:0px;fill:#ffffff;fill-opacity:1;stroke:none;stroke-width:1.5;stroke-miterlimit:4;stroke-dasharray:none;stroke-opacity:1"
       d="M 23.441885,1041.3622 H 16.73509 v -1.6521 q 0.768787,-0.6515 1.537572,-1.3835 0.774523,-0.732 1.239237,-1.2626 0.694201,-0.7858 0.986799,-1.37 0.292598,-0.5843 0.292598,-1.1552 0,-0.685 -0.378656,-1.0544 -0.372919,-0.3761 -1.078595,-0.3761 -0.527823,0 -1.113018,0.2552 -0.579458,0.2552 -1.078594,0.6515 h -0.183591 v -2.223 q 0.407341,-0.2082 1.199076,-0.4164 0.797471,-0.2082 1.594943,-0.2082 1.606418,0 2.449788,0.7925 0.843369,0.7858 0.843369,2.2297 0,0.9469 -0.407341,1.7999 -0.401605,0.8529 -1.233501,1.7595 -0.522085,0.5642 -1.049908,1.041 -0.527823,0.4701 -0.751574,0.6582 h 3.838191 z" />
    <path
       inkscape:connector-curvature="0"
       id="path826"
       style="font-style:normal;font-weight:bold;font-size:medium;line-height:1.25;font-family:sans-serif;letter-spacing:0px;word-spacing:0px;fill:#ffffff;fill-opacity:1;stroke:none;stroke-width:1.5;stroke-miterlimit:4;stroke-dasharray:none;stroke-opacity:1"
       d="m 36.184221,1034.5187 q 0,0.6716 -0.200802,1.3163 -0.200802,0.638 -0.573721,1.0745 -0.510611,0.591 -1.141704,0.8933 -0.625355,0.3022 -1.56052,0.3022 h -1.371193 v 3.2572 h -2.203087 v -10 h 3.625915 q 0.814683,0 1.371192,0.1679 0.562246,0.1612 0.992537,0.4902 0.516349,0.3963 0.785997,1.0141 0.275386,0.6179 0.275386,1.4843 z m -2.27767,0.06 q 0,-0.4231 -0.195066,-0.7253 -0.195065,-0.3089 -0.45324,-0.4298 -0.344232,-0.1612 -0.671252,-0.1746 -0.327021,-0.02 -0.872056,-0.02 h -0.378656 v 2.9953 h 0.631093 q 0.562247,0 0.923691,-0.081 0.36718,-0.081 0.61388,-0.3224 0.212278,-0.2149 0.304072,-0.5104 0.09753,-0.3022 0.09753,-0.7321 z" />
    <path
       inkscape:connector-curvature="0"
       id="path828"
       style="font-style:normal;font-weight:bold;font-size:medium;line-height:1.25;font-family:sans-serif;letter-spacing:0px;word-spacing:0px;fill:#ffffff;fill-opacity:1;stroke:none;stroke-width:1.5;stroke-miterlimit:4;stroke-dasharray:none;stroke-opacity:1"
       d="m 43.900764,1041.3622 h -6.16176 v -10 h 2.203087 v 8.0658 h 3.958673 z" />
    <path
       inkscape:connector-curvature="0"
       id="path830"
       style="font-style:normal;font-weight:bold;font-size:medium;line-height:1.25;font-family:sans-serif;letter-spacing:0px;word-spacing:0px;fill:#ffffff;fill-opacity:1;stroke:none;stroke-width:1.5;stroke-miterlimit:4;stroke-dasharray:none;stroke-opacity:1"
       d="m 53.114719,1041.3622 h -2.277671 l -0.590932,-2.0215 h -3.166939 l -0.590932,2.0215 h -2.220299 l 3.155464,-10 h 2.535845 z m -3.402164,-3.8549 -1.049908,-3.5863 -1.049909,3.5863 z" />
    <path
       inkscape:connector-curvature="0"
       id="path832"
       style="font-style:normal;font-weight:bold;font-size:medium;line-height:1.25;font-family:sans-serif;letter-spacing:0px;word-spacing:0px;fill:#ffffff;fill-opacity:1;stroke:none;stroke-width:1.5;stroke-miterlimit:4;stroke-dasharray:none;stroke-opacity:1"
       d="m 61.869695,1031.3622 -3.149726,6.1316 v 3.8684 h -2.203087 v -3.7475 l -3.201362,-6.2525 h 2.501423 l 1.84738,3.8684 1.784272,-3.8684 z" />
    <path
       inkscape:connector-curvature="0"
       id="path834"
       style="font-style:normal;font-weight:bold;font-size:medium;line-height:1.25;font-family:sans-serif;letter-spacing:0px;word-spacing:0px;fill:#ffffff;fill-opacity:1;stroke:none;stroke-width:1.5;stroke-miterlimit:4;stroke-dasharray:none;stroke-opacity:1"
       d="m 69.184637,1041.3622 h -6.178972 v -10 h 6.178972 v 1.9342 h -3.987359 v 1.726 h 3.700498 v 1.9341 h -3.700498 v 2.4715 h 3.987359 z" />
    <path
       inkscape:connector-curvature="0"
       id="path836"
       style="font-style:normal;font-weight:bold;font-size:medium;line-height:1.25;font-family:sans-serif;letter-spacing:0px;word-spacing:0px;fill:#ffffff;fill-opacity:1;stroke:none;stroke-width:1.5;stroke-miterlimit:4;stroke-dasharray:none;stroke-opacity:1"
       d="m 75.828322,1034.4246 q 0,-0.376 -0.131956,-0.6447 -0.131956,-0.2686 -0.453239,-0.4231 -0.223751,-0.1074 -0.522086,-0.1276 -0.298335,-0.027 -0.694202,-0.027 h -0.797472 v 2.6931 h 0.676991 q 0.527822,0 0.883529,-0.061 0.355707,-0.061 0.59667,-0.2754 0.229489,-0.2082 0.332758,-0.4567 0.109007,-0.2552 0.109007,-0.6783 z m 3.436587,6.9376 h -2.69075 l -2.329306,-3.6669 h -1.015486 v 3.6669 h -2.191613 v -10 h 3.694761 q 0.757312,0 1.302347,0.1007 0.545034,0.1007 1.021222,0.4365 0.481925,0.3358 0.763049,0.8731 0.28686,0.5306 0.28686,1.3365 0,1.1081 -0.441765,1.8066 -0.436027,0.6984 -1.250711,1.1618 z" />
  </g>
</svg>
