<?xml version="1.0" encoding="UTF-8" standalone="no"?>
<!-- Created with Inkscape (http://www.inkscape.org/) -->

<svg
   xmlns:dc="http://purl.org/dc/elements/1.1/"
   xmlns:cc="http://creativecommons.org/ns#"
   xmlns:rdf="http://www.w3.org/1999/02/22-rdf-syntax-ns#"
   xmlns:svg="http://www.w3.org/2000/svg"
   xmlns="http://www.w3.org/2000/svg"
   xmlns:xlink="http://www.w3.org/1999/xlink"
   xmlns:sodipodi="http://sodipodi.sourceforge.net/DTD/sodipodi-0.dtd"
   xmlns:inkscape="http://www.inkscape.org/namespaces/inkscape"
   width="96"
   height="32"
   viewBox="0 0 96 32.000001"
   id="svg2"
   version="1.1"
   inkscape:version="0.92.2 (5c3e80d, 2017-08-06)"
   sodipodi:docname="select-1-player.svg"
   inkscape:export-filename="C:\Users\Zachery\Desktop\ddr\img\left3.png"
   inkscape:export-xdpi="720"
   inkscape:export-ydpi="720">
  <defs
     id="defs4">
    <linearGradient
       inkscape:collect="always"
       id="linearGradient859">
      <stop
         style="stop-color:#3f3fff;stop-opacity:1"
         offset="0"
         id="stop855" />
      <stop
         style="stop-color:#4040c0;stop-opacity:1"
         offset="1"
         id="stop857" />
    </linearGradient>
    <linearGradient
       inkscape:collect="always"
       xlink:href="#linearGradient859"
       id="linearGradient861"
       x1="48"
       y1="1021.3622"
       x2="48"
       y2="1051.3622"
       gradientUnits="userSpaceOnUse" />
  </defs>
  <sodipodi:namedview
     id="base"
     pagecolor="#ffffff"
     bordercolor="#666666"
     borderopacity="1.0"
     inkscape:pageopacity="0.0"
     inkscape:pageshadow="2"
     inkscape:zoom="5.6568546"
     inkscape:cx="53.038192"
     inkscape:cy="2.7764178"
     inkscape:document-units="px"
     inkscape:current-layer="layer1"
     showgrid="false"
     units="px"
     inkscape:object-nodes="true"
     inkscape:window-width="1920"
     inkscape:window-height="1001"
     inkscape:window-x="-9"
     inkscape:window-y="-9"
     inkscape:window-maximized="1"
     inkscape:snap-center="false"
     inkscape:snap-global="true"
     inkscape:snap-bbox="true"
     inkscape:snap-nodes="true"
     inkscape:bbox-nodes="true"
     borderlayer="false">
    <inkscape:grid
       type="xygrid"
       id="grid4147"
       empspacing="4"
       spacingx="1"
       spacingy="1"
       color="#ffd23f"
       opacity="0.27058824"
       empcolor="#ffa43f"
       empopacity="0.51372549"
       units="px" />
  </sodipodi:namedview>
  <metadata
     id="metadata7">
    <rdf:RDF>
      <cc:Work
         rdf:about="">
        <dc:format>image/svg+xml</dc:format>
        <dc:type
           rdf:resource="http://purl.org/dc/dcmitype/StillImage" />
        <dc:title />
      </cc:Work>
    </rdf:RDF>
  </metadata>
  <g
     inkscape:label="Layer 1"
     inkscape:groupmode="layer"
     id="layer1"
     transform="translate(0,-1020.3622)">
    <rect
       ry="3.0000174"
       rx="3.0000174"
       y="1021.3622"
       x="1"
       height="30.000017"
       width="94"
       id="rect848"
       style="opacity:1;fill:url(#linearGradient861);fill-opacity:1;stroke:none;stroke-width:4;stroke-linecap:round;stroke-linejoin:miter;stroke-miterlimit:4;stroke-dasharray:none;stroke-opacity:0.46629214" />
    <rect
       ry="4.0000172"
       rx="4.0000172"
       y="1020.3622"
       x="0"
       height="32"
       width="96"
       id="rect846"
       style="opacity:1;fill:none;fill-opacity:1;stroke:none;stroke-width:4;stroke-linecap:round;stroke-linejoin:miter;stroke-miterlimit:4;stroke-dasharray:none;stroke-opacity:0.46629214" />
    <path
       style="color:#000000;font-style:normal;font-variant:normal;font-weight:normal;font-stretch:normal;font-size:medium;line-height:normal;font-family:sans-serif;font-variant-ligatures:normal;font-variant-position:normal;font-variant-caps:normal;font-variant-numeric:normal;font-variant-alternates:normal;font-feature-settings:normal;text-indent:0;text-align:start;text-decoration:none;text-decoration-line:none;text-decoration-style:solid;text-decoration-color:#000000;letter-spacing:normal;word-spacing:normal;text-transform:none;writing-mode:lr-tb;direction:ltr;text-orientation:mixed;dominant-baseline:auto;baseline-shift:baseline;text-anchor:start;white-space:normal;shape-padding:0;clip-rule:nonzero;display:inline;overflow:visible;visibility:visible;opacity:1;isolation:auto;mix-blend-mode:normal;color-interpolation:sRGB;color-interpolation-filters:linearRGB;solid-color:#000000;solid-opacity:1;vector-effect:none;fill:#000000;fill-opacity:0.9044944;fill-rule:nonzero;stroke:none;stroke-width:4;stroke-linecap:round;stroke-linejoin:miter;stroke-miterlimit:4;stroke-dasharray:none;stroke-dashoffset:0;stroke-opacity:1;color-rendering:auto;image-rendering:auto;shape-rendering:auto;text-rendering:auto;enable-background:accumulate"
       d="M 4 0 C 1.7839905 0 0 1.7839905 0 4 L 0 28 C 0 30.21601 1.7839905 32 4 32 L 92 32 C 94.21601 32 96 30.21601 96 28 L 96 4 C 96 1.7839905 94.21601 0 92 0 L 4 0 z M 4 2 L 92 2 C 93.142604 2 94 2.8574 94 4 L 94 28 C 94 29.1426 93.142604 30 92 30 L 4 30 C 2.857396 30 2 29.1426 2 28 L 2 4 C 2 2.8574 2.857396 2 4 2 z "
       id="rect844"
       transform="translate(0,1020.3622)" />
    <path
       inkscape:connector-curvature="0"
       id="path839"
       style="font-style:normal;font-weight:bold;font-size:medium;line-height:1.25;font-family:sans-serif;letter-spacing:0px;word-spacing:0px;fill:none;fill-opacity:1;stroke:#000000;stroke-width:2;stroke-miterlimit:4;stroke-dasharray:none;stroke-opacity:1"
       d="m 22.67023,1041.3622 h -5.702783 v -1.7462 h 1.801482 v -5.2854 h -1.801482 v -1.6319 q 0.413079,0 0.791734,-0.054 0.378656,-0.061 0.631094,-0.2015 0.298334,-0.1679 0.447501,-0.4365 0.149168,-0.2687 0.172116,-0.6716 h 1.899016 v 8.2807 h 1.761322 z" />
    <path
       inkscape:connector-curvature="0"
       id="path841"
       style="font-style:normal;font-weight:bold;font-size:medium;line-height:1.25;font-family:sans-serif;letter-spacing:0px;word-spacing:0px;fill:none;fill-opacity:1;stroke:#000000;stroke-width:2;stroke-miterlimit:4;stroke-dasharray:none;stroke-opacity:1"
       d="m 35.951864,1034.5187 q 0,0.6716 -0.200802,1.3163 -0.200803,0.638 -0.573721,1.0745 -0.510611,0.591 -1.141705,0.8933 -0.625355,0.3022 -1.560519,0.3022 h -1.371193 v 3.2572 h -2.203087 v -10 h 3.625915 q 0.814683,0 1.371192,0.1679 0.562246,0.1612 0.992537,0.4902 0.516348,0.3963 0.785997,1.0141 0.275386,0.6179 0.275386,1.4843 z m -2.277672,0.06 q 0,-0.4231 -0.195064,-0.7253 -0.195065,-0.3089 -0.45324,-0.4298 -0.344232,-0.1612 -0.671253,-0.1746 -0.32702,-0.02 -0.872055,-0.02 h -0.378656 v 2.9953 h 0.631093 q 0.562246,0 0.92369,-0.081 0.367181,-0.081 0.613881,-0.3224 0.212277,-0.2149 0.304072,-0.5104 0.09753,-0.3022 0.09753,-0.7321 z" />
    <path
       inkscape:connector-curvature="0"
       id="path843"
       style="font-style:normal;font-weight:bold;font-size:medium;line-height:1.25;font-family:sans-serif;letter-spacing:0px;word-spacing:0px;fill:none;fill-opacity:1;stroke:#000000;stroke-width:2;stroke-miterlimit:4;stroke-dasharray:none;stroke-opacity:1"
       d="m 43.668407,1041.3622 h -6.161761 v -10 h 2.203088 v 8.0658 h 3.958673 z" />
    <path
       inkscape:connector-curvature="0"
       id="path845"
       style="font-style:normal;font-weight:bold;font-size:medium;line-height:1.25;font-family:sans-serif;letter-spacing:0px;word-spacing:0px;fill:none;fill-opacity:1;stroke:#000000;stroke-width:2;stroke-miterlimit:4;stroke-dasharray:none;stroke-opacity:1"
       d="m 52.882362,1041.3622 h -2.277671 l -0.590933,-2.0215 H 46.84682 l -0.590932,2.0215 h -2.220299 l 3.155464,-10 h 2.535845 z m -3.402164,-3.8549 -1.049909,-3.5863 -1.049909,3.5863 z" />
    <path
       inkscape:connector-curvature="0"
       id="path847"
       style="font-style:normal;font-weight:bold;font-size:medium;line-height:1.25;font-family:sans-serif;letter-spacing:0px;word-spacing:0px;fill:none;fill-opacity:1;stroke:#000000;stroke-width:2;stroke-miterlimit:4;stroke-dasharray:none;stroke-opacity:1"
       d="m 61.637338,1031.3622 -3.149726,6.1316 v 3.8684 h -2.203087 v -3.7475 l -3.201362,-6.2525 h 2.501422 l 1.847381,3.8684 1.784271,-3.8684 z" />
    <path
       inkscape:connector-curvature="0"
       id="path849"
       style="font-style:normal;font-weight:bold;font-size:medium;line-height:1.25;font-family:sans-serif;letter-spacing:0px;word-spacing:0px;fill:none;fill-opacity:1;stroke:#000000;stroke-width:2;stroke-miterlimit:4;stroke-dasharray:none;stroke-opacity:1"
       d="m 68.952279,1041.3622 h -6.178972 v -10 h 6.178972 v 1.9342 h -3.987358 v 1.726 h 3.700498 v 1.9341 h -3.700498 v 2.4715 h 3.987358 z" />
    <path
       inkscape:connector-curvature="0"
       id="path851"
       style="font-style:normal;font-weight:bold;font-size:medium;line-height:1.25;font-family:sans-serif;letter-spacing:0px;word-spacing:0px;fill:none;fill-opacity:1;stroke:#000000;stroke-width:2;stroke-miterlimit:4;stroke-dasharray:none;stroke-opacity:1"
       d="m 75.595965,1034.4246 q 0,-0.376 -0.131956,-0.6447 -0.131956,-0.2686 -0.453239,-0.4231 -0.223752,-0.1074 -0.522087,-0.1276 -0.298334,-0.027 -0.694201,-0.027 H 72.99701 v 2.6931 H 73.674 q 0.527823,0 0.88353,-0.061 0.355707,-0.061 0.596669,-0.2754 0.229489,-0.2082 0.332759,-0.4567 0.109007,-0.2552 0.109007,-0.6783 z m 3.436587,6.9376 h -2.690751 l -2.329306,-3.6669 H 72.99701 v 3.6669 h -2.191613 v -10 h 3.694761 q 0.757312,0 1.302346,0.1007 0.545034,0.1007 1.021223,0.4365 0.481925,0.3358 0.763049,0.8731 0.28686,0.5306 0.28686,1.3365 0,1.1081 -0.441765,1.8066 -0.436027,0.6984 -1.250711,1.1618 z" />
    <path
       inkscape:connector-curvature="0"
       id="path824"
       style="font-style:normal;font-weight:bold;font-size:medium;line-height:1.25;font-family:sans-serif;letter-spacing:0px;word-spacing:0px;fill:#e2e2e2;fill-opacity:1;stroke:none;stroke-width:1.5;stroke-miterlimit:4;stroke-dasharray:none;stroke-opacity:1"
       d="m 22.67023,1041.3622 h -5.702783 v -1.7462 h 1.801482 v -5.2854 h -1.801482 v -1.6319 q 0.413079,0 0.791734,-0.054 0.378656,-0.061 0.631094,-0.2015 0.298334,-0.1679 0.447501,-0.4365 0.149168,-0.2687 0.172116,-0.6716 h 1.899016 v 8.2807 h 1.761322 z" />
    <path
       inkscape:connector-curvature="0"
       id="path826"
       style="font-style:normal;font-weight:bold;font-size:medium;line-height:1.25;font-family:sans-serif;letter-spacing:0px;word-spacing:0px;fill:#e2e2e2;fill-opacity:1;stroke:none;stroke-width:1.5;stroke-miterlimit:4;stroke-dasharray:none;stroke-opacity:1"
       d="m 35.951864,1034.5187 q 0,0.6716 -0.200802,1.3163 -0.200803,0.638 -0.573721,1.0745 -0.510611,0.591 -1.141705,0.8933 -0.625355,0.3022 -1.560519,0.3022 h -1.371193 v 3.2572 h -2.203087 v -10 h 3.625915 q 0.814683,0 1.371192,0.1679 0.562246,0.1612 0.992537,0.4902 0.516348,0.3963 0.785997,1.0141 0.275386,0.6179 0.275386,1.4843 z m -2.277672,0.06 q 0,-0.4231 -0.195064,-0.7253 -0.195065,-0.3089 -0.45324,-0.4298 -0.344232,-0.1612 -0.671253,-0.1746 -0.32702,-0.02 -0.872055,-0.02 h -0.378656 v 2.9953 h 0.631093 q 0.562246,0 0.92369,-0.081 0.367181,-0.081 0.613881,-0.3224 0.212277,-0.2149 0.304072,-0.5104 0.09753,-0.3022 0.09753,-0.7321 z" />
    <path
       inkscape:connector-curvature="0"
       id="path828"
       style="font-style:normal;font-weight:bold;font-size:medium;line-height:1.25;font-family:sans-serif;letter-spacing:0px;word-spacing:0px;fill:#e2e2e2;fill-opacity:1;stroke:none;stroke-width:1.5;stroke-miterlimit:4;stroke-dasharray:none;stroke-opacity:1"
       d="m 43.668407,1041.3622 h -6.161761 v -10 h 2.203088 v 8.0658 h 3.958673 z" />
    <path
       inkscape:connector-curvature="0"
       id="path830"
       style="font-style:normal;font-weight:bold;font-size:medium;line-height:1.25;font-family:sans-serif;letter-spacing:0px;word-spacing:0px;fill:#e2e2e2;fill-opacity:1;stroke:none;stroke-width:1.5;stroke-miterlimit:4;stroke-dasharray:none;stroke-opacity:1"
       d="m 52.882362,1041.3622 h -2.277671 l -0.590933,-2.0215 H 46.84682 l -0.590932,2.0215 h -2.220299 l 3.155464,-10 h 2.535845 z m -3.402164,-3.8549 -1.049909,-3.5863 -1.049909,3.5863 z" />
    <path
       inkscape:connector-curvature="0"
       id="path832"
       style="font-style:normal;font-weight:bold;font-size:medium;line-height:1.25;font-family:sans-serif;letter-spacing:0px;word-spacing:0px;fill:#e2e2e2;fill-opacity:1;stroke:none;stroke-width:1.5;stroke-miterlimit:4;stroke-dasharray:none;stroke-opacity:1"
       d="m 61.637338,1031.3622 -3.149726,6.1316 v 3.8684 h -2.203087 v -3.7475 l -3.201362,-6.2525 h 2.501422 l 1.847381,3.8684 1.784271,-3.8684 z" />
    <path
       inkscape:connector-curvature="0"
       id="path834"
       style="font-style:normal;font-weight:bold;font-size:medium;line-height:1.25;font-family:sans-serif;letter-spacing:0px;word-spacing:0px;fill:#e2e2e2;fill-opacity:1;stroke:none;stroke-width:1.5;stroke-miterlimit:4;stroke-dasharray:none;stroke-opacity:1"
       d="m 68.952279,1041.3622 h -6.178972 v -10 h 6.178972 v 1.9342 h -3.987358 v 1.726 h 3.700498 v 1.9341 h -3.700498 v 2.4715 h 3.987358 z" />
    <path
       inkscape:connector-curvature="0"
       id="path836"
       style="font-style:normal;font-weight:bold;font-size:medium;line-height:1.25;font-family:sans-serif;letter-spacing:0px;word-spacing:0px;fill:#e2e2e2;fill-opacity:1;stroke:none;stroke-width:1.5;stroke-miterlimit:4;stroke-dasharray:none;stroke-opacity:1"
       d="m 75.595965,1034.4246 q 0,-0.376 -0.131956,-0.6447 -0.131956,-0.2686 -0.453239,-0.4231 -0.223752,-0.1074 -0.522087,-0.1276 -0.298334,-0.027 -0.694201,-0.027 H 72.99701 v 2.6931 H 73.674 q 0.527823,0 0.88353,-0.061 0.355707,-0.061 0.596669,-0.2754 0.229489,-0.2082 0.332759,-0.4567 0.109007,-0.2552 0.109007,-0.6783 z m 3.436587,6.9376 h -2.690751 l -2.329306,-3.6669 H 72.99701 v 3.6669 h -2.191613 v -10 h 3.694761 q 0.757312,0 1.302346,0.1007 0.545034,0.1007 1.021223,0.4365 0.481925,0.3358 0.763049,0.8731 0.28686,0.5306 0.28686,1.3365 0,1.1081 -0.441765,1.8066 -0.436027,0.6984 -1.250711,1.1618 z" />
  </g>
</svg>
