<?xml version="1.0" encoding="UTF-8" standalone="no"?>
<!-- Created with Inkscape (http://www.inkscape.org/) -->

<svg
   xmlns:dc="http://purl.org/dc/elements/1.1/"
   xmlns:cc="http://creativecommons.org/ns#"
   xmlns:rdf="http://www.w3.org/1999/02/22-rdf-syntax-ns#"
   xmlns:svg="http://www.w3.org/2000/svg"
   xmlns="http://www.w3.org/2000/svg"
   xmlns:xlink="http://www.w3.org/1999/xlink"
   xmlns:sodipodi="http://sodipodi.sourceforge.net/DTD/sodipodi-0.dtd"
   xmlns:inkscape="http://www.inkscape.org/namespaces/inkscape"
   width="96"
   height="32"
   viewBox="0 0 96 32.000001"
   id="svg2"
   version="1.1"
   inkscape:version="0.92.2 (5c3e80d, 2017-08-06)"
   sodipodi:docname="select-double.svg"
   inkscape:export-filename="C:\Users\Zachery\Desktop\ddr\img\left3.png"
   inkscape:export-xdpi="720"
   inkscape:export-ydpi="720">
  <defs
     id="defs4">
    <linearGradient
       inkscape:collect="always"
       id="linearGradient859">
      <stop
         style="stop-color:#40ff40;stop-opacity:1"
         offset="0"
         id="stop855" />
      <stop
         style="stop-color:#3fc03f;stop-opacity:1"
         offset="1"
         id="stop857" />
    </linearGradient>
    <linearGradient
       inkscape:collect="always"
       xlink:href="#linearGradient859"
       id="linearGradient861"
       x1="48"
       y1="1021.3622"
       x2="48"
       y2="1051.3622"
       gradientUnits="userSpaceOnUse" />
  </defs>
  <sodipodi:namedview
     id="base"
     pagecolor="#ffffff"
     bordercolor="#666666"
     borderopacity="1.0"
     inkscape:pageopacity="0.0"
     inkscape:pageshadow="2"
     inkscape:zoom="11.313709"
     inkscape:cx="49.263192"
     inkscape:cy="14.351073"
     inkscape:document-units="px"
     inkscape:current-layer="layer1"
     showgrid="false"
     units="px"
     inkscape:object-nodes="true"
     inkscape:window-width="1920"
     inkscape:window-height="1001"
     inkscape:window-x="-9"
     inkscape:window-y="-9"
     inkscape:window-maximized="1"
     inkscape:snap-center="false"
     inkscape:snap-global="true"
     inkscape:snap-bbox="true"
     inkscape:snap-nodes="true"
     inkscape:bbox-nodes="true"
     borderlayer="false">
    <inkscape:grid
       type="xygrid"
       id="grid4147"
       empspacing="4"
       spacingx="1"
       spacingy="1"
       color="#ffd23f"
       opacity="0.27058824"
       empcolor="#ffa43f"
       empopacity="0.51372549"
       units="px" />
  </sodipodi:namedview>
  <metadata
     id="metadata7">
    <rdf:RDF>
      <cc:Work
         rdf:about="">
        <dc:format>image/svg+xml</dc:format>
        <dc:type
           rdf:resource="http://purl.org/dc/dcmitype/StillImage" />
        <dc:title />
      </cc:Work>
    </rdf:RDF>
  </metadata>
  <g
     inkscape:label="Layer 1"
     inkscape:groupmode="layer"
     id="layer1"
     transform="translate(0,-1020.3622)">
    <rect
       ry="3.0000174"
       rx="3.0000174"
       y="1021.3622"
       x="1"
       height="30.000017"
       width="94"
       id="rect848"
       style="opacity:1;fill:url(#linearGradient861);fill-opacity:1;stroke:none;stroke-width:4;stroke-linecap:round;stroke-linejoin:miter;stroke-miterlimit:4;stroke-dasharray:none;stroke-opacity:0.46629214" />
    <rect
       ry="4.0000172"
       rx="4.0000172"
       y="1020.3622"
       x="0"
       height="32"
       width="96"
       id="rect846"
       style="opacity:1;fill:none;fill-opacity:1;stroke:none;stroke-width:4;stroke-linecap:round;stroke-linejoin:miter;stroke-miterlimit:4;stroke-dasharray:none;stroke-opacity:0.46629214" />
    <path
       style="color:#000000;font-style:normal;font-variant:normal;font-weight:normal;font-stretch:normal;font-size:medium;line-height:normal;font-family:sans-serif;font-variant-ligatures:normal;font-variant-position:normal;font-variant-caps:normal;font-variant-numeric:normal;font-variant-alternates:normal;font-feature-settings:normal;text-indent:0;text-align:start;text-decoration:none;text-decoration-line:none;text-decoration-style:solid;text-decoration-color:#000000;letter-spacing:normal;word-spacing:normal;text-transform:none;writing-mode:lr-tb;direction:ltr;text-orientation:mixed;dominant-baseline:auto;baseline-shift:baseline;text-anchor:start;white-space:normal;shape-padding:0;clip-rule:nonzero;display:inline;overflow:visible;visibility:visible;opacity:1;isolation:auto;mix-blend-mode:normal;color-interpolation:sRGB;color-interpolation-filters:linearRGB;solid-color:#000000;solid-opacity:1;vector-effect:none;fill:#000000;fill-opacity:0.9044944;fill-rule:nonzero;stroke:none;stroke-width:4;stroke-linecap:round;stroke-linejoin:miter;stroke-miterlimit:4;stroke-dasharray:none;stroke-dashoffset:0;stroke-opacity:1;color-rendering:auto;image-rendering:auto;shape-rendering:auto;text-rendering:auto;enable-background:accumulate"
       d="M 4 0 C 1.7839905 0 0 1.7839905 0 4 L 0 28 C 0 30.21601 1.7839905 32 4 32 L 92 32 C 94.21601 32 96 30.21601 96 28 L 96 4 C 96 1.7839905 94.21601 0 92 0 L 4 0 z M 4 2 L 92 2 C 93.142604 2 94 2.8574 94 4 L 94 28 C 94 29.1426 93.142604 30 92 30 L 4 30 C 2.857396 30 2 29.1426 2 28 L 2 4 C 2 2.8574 2.857396 2 4 2 z "
       id="rect844"
       transform="translate(0,1020.3622)" />
    <path
       inkscape:connector-curvature="0"
       id="path837"
       style="font-style:normal;font-weight:bold;font-size:medium;line-height:1.25;font-family:sans-serif;letter-spacing:0px;word-spacing:0px;fill:none;fill-opacity:1;stroke:#000000;stroke-width:2;stroke-miterlimit:4;stroke-dasharray:none;stroke-opacity:1"
       d="m 30.125732,1036.3723 q 0,1.3969 -0.545035,2.505 -0.545035,1.1014 -1.37693,1.6924 -0.625356,0.4433 -1.371192,0.6179 -0.745838,0.1746 -1.76706,0.1746 h -3.012033 v -10 h 3.098091 q 1.044171,0 1.801483,0.2082 0.757311,0.2015 1.273659,0.5775 0.883531,0.6313 1.388405,1.7059 0.510612,1.0678 0.510612,2.5185 z m -2.277672,-0.02 q 0,-0.9872 -0.309809,-1.6857 -0.304072,-0.7051 -0.969588,-1.1014 -0.338495,-0.1947 -0.694202,-0.2619 -0.349969,-0.074 -1.061384,-0.074 h -0.556508 v 6.2592 h 0.556508 q 0.785998,0 1.153179,-0.081 0.367182,-0.087 0.717151,-0.3089 0.602407,-0.4029 0.88353,-1.0745 0.281123,-0.6783 0.281123,-1.6723 z" />
    <path
       inkscape:connector-curvature="0"
       id="path839"
       style="font-style:normal;font-weight:bold;font-size:medium;line-height:1.25;font-family:sans-serif;letter-spacing:0px;word-spacing:0px;fill:none;fill-opacity:1;stroke:#000000;stroke-width:2;stroke-miterlimit:4;stroke-dasharray:none;stroke-opacity:1"
       d="m 40.114209,1036.3655 q 0,2.3909 -1.170391,3.8013 -1.17039,1.4036 -3.235785,1.4036 -2.059656,0 -3.230047,-1.4036 -1.17039,-1.4104 -1.17039,-3.8013 0,-2.411 1.17039,-3.8079 1.170391,-1.4036 3.230047,-1.4036 2.053921,0 3.230048,1.4036 1.176128,1.3969 1.176128,3.8079 z m -2.920238,2.5319 q 0.321283,-0.4566 0.476188,-1.0745 0.154904,-0.6246 0.154904,-1.4641 0,-0.8999 -0.177853,-1.5312 -0.177854,-0.6313 -0.464714,-1.0208 -0.292597,-0.403 -0.676991,-0.5843 -0.378655,-0.1813 -0.791734,-0.1813 -0.418816,0 -0.791734,0.1746 -0.367181,0.1746 -0.676991,0.5775 -0.28686,0.3761 -0.470451,1.041 -0.177853,0.6582 -0.177853,1.5312 0,0.8933 0.172116,1.5246 0.177853,0.6245 0.464714,1.0208 0.28686,0.3962 0.671253,0.5843 0.384392,0.188 0.808946,0.188 0.424553,0 0.808946,-0.188 0.384393,-0.1948 0.671254,-0.5978 z" />
    <path
       inkscape:connector-curvature="0"
       id="path841"
       style="font-style:normal;font-weight:bold;font-size:medium;line-height:1.25;font-family:sans-serif;letter-spacing:0px;word-spacing:0px;fill:none;fill-opacity:1;stroke:#000000;stroke-width:2;stroke-miterlimit:4;stroke-dasharray:none;stroke-opacity:1"
       d="m 49.270792,1037.7423 q 0,1.8536 -0.963851,2.8408 -0.963851,0.9873 -2.839918,0.9873 -1.876066,0 -2.839916,-0.9873 -0.958114,-0.9872 -0.958114,-2.8341 v -6.3868 h 2.214562 v 6.2391 q 0,1.0409 0.372918,1.5514 0.372918,0.5104 1.21055,0.5104 0.826158,0 1.204814,-0.4903 0.384393,-0.4903 0.384393,-1.5715 v -6.2391 h 2.214562 z" />
    <path
       inkscape:connector-curvature="0"
       id="path843"
       style="font-style:normal;font-weight:bold;font-size:medium;line-height:1.25;font-family:sans-serif;letter-spacing:0px;word-spacing:0px;fill:none;fill-opacity:1;stroke:#000000;stroke-width:2;stroke-miterlimit:4;stroke-dasharray:none;stroke-opacity:1"
       d="m 58.645387,1038.2997 q 0,0.7253 -0.252437,1.2962 -0.2467,0.5709 -0.682727,0.9469 -0.504875,0.4433 -1.113019,0.6313 -0.602407,0.1881 -1.531834,0.1881 h -3.729185 v -10 h 3.316106 q 1.032698,0 1.508886,0.081 0.481925,0.081 0.952376,0.3559 0.487663,0.2888 0.722888,0.7791 0.240963,0.4835 0.240963,1.1081 0,0.7253 -0.327021,1.2828 -0.327021,0.5507 -0.92369,0.8596 v 0.054 q 0.837632,0.1947 1.325294,0.8059 0.4934,0.6111 0.4934,1.6118 z m -2.822706,-4.1101 q 0,-0.2485 -0.109007,-0.497 -0.103269,-0.2485 -0.372918,-0.3694 -0.240963,-0.1074 -0.602407,-0.1141 -0.355707,-0.014 -1.004011,-0.014 h -0.206539 v 2.1156 h 0.344232 q 0.522086,0 0.889267,-0.02 0.367181,-0.02 0.579458,-0.1343 0.298334,-0.1545 0.39013,-0.3962 0.0918,-0.2485 0.0918,-0.5709 z m 0.539297,4.0698 q 0,-0.4768 -0.160641,-0.732 -0.154904,-0.2619 -0.53356,-0.3895 -0.258175,-0.087 -0.711414,-0.094 -0.45324,-0.01 -0.946639,-0.01 h -0.481925 v 2.4916 h 0.160641 q 0.929427,0 1.331033,-0.01 0.401604,-0.01 0.740099,-0.1746 0.344233,-0.1679 0.470451,-0.4433 0.131955,-0.2821 0.131955,-0.6447 z" />
    <path
       inkscape:connector-curvature="0"
       id="path845"
       style="font-style:normal;font-weight:bold;font-size:medium;line-height:1.25;font-family:sans-serif;letter-spacing:0px;word-spacing:0px;fill:none;fill-opacity:1;stroke:#000000;stroke-width:2;stroke-miterlimit:4;stroke-dasharray:none;stroke-opacity:1"
       d="m 66.44799,1041.3622 h -6.16176 v -10 h 2.203087 v 8.0658 h 3.958673 z" />
    <path
       inkscape:connector-curvature="0"
       id="path847"
       style="font-style:normal;font-weight:bold;font-size:medium;line-height:1.25;font-family:sans-serif;letter-spacing:0px;word-spacing:0px;fill:none;fill-opacity:1;stroke:#000000;stroke-width:2;stroke-miterlimit:4;stroke-dasharray:none;stroke-opacity:1"
       d="m 73.946518,1041.3622 h -6.178971 v -10 h 6.178971 v 1.9342 H 69.95916 v 1.726 h 3.700498 v 1.9341 H 69.95916 v 2.4715 h 3.987358 z" />
    <path
       inkscape:connector-curvature="0"
       id="path824"
       style="font-style:normal;font-weight:bold;font-size:medium;line-height:1.25;font-family:sans-serif;letter-spacing:0px;word-spacing:0px;fill:#ffffff;fill-opacity:1;stroke:none;stroke-width:1.5;stroke-miterlimit:4;stroke-dasharray:none;stroke-opacity:1"
       d="m 30.125732,1036.3723 q 0,1.3969 -0.545035,2.505 -0.545035,1.1014 -1.37693,1.6924 -0.625356,0.4433 -1.371192,0.6179 -0.745838,0.1746 -1.76706,0.1746 h -3.012033 v -10 h 3.098091 q 1.044171,0 1.801483,0.2082 0.757311,0.2015 1.273659,0.5775 0.883531,0.6313 1.388405,1.7059 0.510612,1.0678 0.510612,2.5185 z m -2.277672,-0.02 q 0,-0.9872 -0.309809,-1.6857 -0.304072,-0.7051 -0.969588,-1.1014 -0.338495,-0.1947 -0.694202,-0.2619 -0.349969,-0.074 -1.061384,-0.074 h -0.556508 v 6.2592 h 0.556508 q 0.785998,0 1.153179,-0.081 0.367182,-0.087 0.717151,-0.3089 0.602407,-0.4029 0.88353,-1.0745 0.281123,-0.6783 0.281123,-1.6723 z" />
    <path
       inkscape:connector-curvature="0"
       id="path826"
       style="font-style:normal;font-weight:bold;font-size:medium;line-height:1.25;font-family:sans-serif;letter-spacing:0px;word-spacing:0px;fill:#ffffff;fill-opacity:1;stroke:none;stroke-width:1.5;stroke-miterlimit:4;stroke-dasharray:none;stroke-opacity:1"
       d="m 40.114209,1036.3655 q 0,2.3909 -1.170391,3.8013 -1.17039,1.4036 -3.235785,1.4036 -2.059656,0 -3.230047,-1.4036 -1.17039,-1.4104 -1.17039,-3.8013 0,-2.411 1.17039,-3.8079 1.170391,-1.4036 3.230047,-1.4036 2.053921,0 3.230048,1.4036 1.176128,1.3969 1.176128,3.8079 z m -2.920238,2.5319 q 0.321283,-0.4566 0.476188,-1.0745 0.154904,-0.6246 0.154904,-1.4641 0,-0.8999 -0.177853,-1.5312 -0.177854,-0.6313 -0.464714,-1.0208 -0.292597,-0.403 -0.676991,-0.5843 -0.378655,-0.1813 -0.791734,-0.1813 -0.418816,0 -0.791734,0.1746 -0.367181,0.1746 -0.676991,0.5775 -0.28686,0.3761 -0.470451,1.041 -0.177853,0.6582 -0.177853,1.5312 0,0.8933 0.172116,1.5246 0.177853,0.6245 0.464714,1.0208 0.28686,0.3962 0.671253,0.5843 0.384392,0.188 0.808946,0.188 0.424553,0 0.808946,-0.188 0.384393,-0.1948 0.671254,-0.5978 z" />
    <path
       inkscape:connector-curvature="0"
       id="path828"
       style="font-style:normal;font-weight:bold;font-size:medium;line-height:1.25;font-family:sans-serif;letter-spacing:0px;word-spacing:0px;fill:#ffffff;fill-opacity:1;stroke:none;stroke-width:1.5;stroke-miterlimit:4;stroke-dasharray:none;stroke-opacity:1"
       d="m 49.270792,1037.7423 q 0,1.8536 -0.963851,2.8408 -0.963851,0.9873 -2.839918,0.9873 -1.876066,0 -2.839916,-0.9873 -0.958114,-0.9872 -0.958114,-2.8341 v -6.3868 h 2.214562 v 6.2391 q 0,1.0409 0.372918,1.5514 0.372918,0.5104 1.21055,0.5104 0.826158,0 1.204814,-0.4903 0.384393,-0.4903 0.384393,-1.5715 v -6.2391 h 2.214562 z" />
    <path
       inkscape:connector-curvature="0"
       id="path830"
       style="font-style:normal;font-weight:bold;font-size:medium;line-height:1.25;font-family:sans-serif;letter-spacing:0px;word-spacing:0px;fill:#ffffff;fill-opacity:1;stroke:none;stroke-width:1.5;stroke-miterlimit:4;stroke-dasharray:none;stroke-opacity:1"
       d="m 58.645387,1038.2997 q 0,0.7253 -0.252437,1.2962 -0.2467,0.5709 -0.682727,0.9469 -0.504875,0.4433 -1.113019,0.6313 -0.602407,0.1881 -1.531834,0.1881 h -3.729185 v -10 h 3.316106 q 1.032698,0 1.508886,0.081 0.481925,0.081 0.952376,0.3559 0.487663,0.2888 0.722888,0.7791 0.240963,0.4835 0.240963,1.1081 0,0.7253 -0.327021,1.2828 -0.327021,0.5507 -0.92369,0.8596 v 0.054 q 0.837632,0.1947 1.325294,0.8059 0.4934,0.6111 0.4934,1.6118 z m -2.822706,-4.1101 q 0,-0.2485 -0.109007,-0.497 -0.103269,-0.2485 -0.372918,-0.3694 -0.240963,-0.1074 -0.602407,-0.1141 -0.355707,-0.014 -1.004011,-0.014 h -0.206539 v 2.1156 h 0.344232 q 0.522086,0 0.889267,-0.02 0.367181,-0.02 0.579458,-0.1343 0.298334,-0.1545 0.39013,-0.3962 0.0918,-0.2485 0.0918,-0.5709 z m 0.539297,4.0698 q 0,-0.4768 -0.160641,-0.732 -0.154904,-0.2619 -0.53356,-0.3895 -0.258175,-0.087 -0.711414,-0.094 -0.45324,-0.01 -0.946639,-0.01 h -0.481925 v 2.4916 h 0.160641 q 0.929427,0 1.331033,-0.01 0.401604,-0.01 0.740099,-0.1746 0.344233,-0.1679 0.470451,-0.4433 0.131955,-0.2821 0.131955,-0.6447 z" />
    <path
       inkscape:connector-curvature="0"
       id="path832"
       style="font-style:normal;font-weight:bold;font-size:medium;line-height:1.25;font-family:sans-serif;letter-spacing:0px;word-spacing:0px;fill:#ffffff;fill-opacity:1;stroke:none;stroke-width:1.5;stroke-miterlimit:4;stroke-dasharray:none;stroke-opacity:1"
       d="m 66.44799,1041.3622 h -6.16176 v -10 h 2.203087 v 8.0658 h 3.958673 z" />
    <path
       inkscape:connector-curvature="0"
       id="path834"
       style="font-style:normal;font-weight:bold;font-size:medium;line-height:1.25;font-family:sans-serif;letter-spacing:0px;word-spacing:0px;fill:#ffffff;fill-opacity:1;stroke:none;stroke-width:1.5;stroke-miterlimit:4;stroke-dasharray:none;stroke-opacity:1"
       d="m 73.946518,1041.3622 h -6.178971 v -10 h 6.178971 v 1.9342 H 69.95916 v 1.726 h 3.700498 v 1.9341 H 69.95916 v 2.4715 h 3.987358 z" />
  </g>
</svg>
