<?xml version="1.0" encoding="UTF-8" standalone="no"?>
<!-- Created with Inkscape (http://www.inkscape.org/) -->

<svg
   xmlns:dc="http://purl.org/dc/elements/1.1/"
   xmlns:cc="http://creativecommons.org/ns#"
   xmlns:rdf="http://www.w3.org/1999/02/22-rdf-syntax-ns#"
   xmlns:svg="http://www.w3.org/2000/svg"
   xmlns="http://www.w3.org/2000/svg"
   xmlns:xlink="http://www.w3.org/1999/xlink"
   xmlns:sodipodi="http://sodipodi.sourceforge.net/DTD/sodipodi-0.dtd"
   xmlns:inkscape="http://www.inkscape.org/namespaces/inkscape"
   width="96"
   height="32"
   viewBox="0 0 96 32.000001"
   id="svg2"
   version="1.1"
   inkscape:version="0.92.2 (5c3e80d, 2017-08-06)"
   sodipodi:docname="select-challenge.svg"
   inkscape:export-filename="C:\Users\Zachery\Desktop\ddr\img\left3.png"
   inkscape:export-xdpi="720"
   inkscape:export-ydpi="720">
  <defs
     id="defs4">
    <linearGradient
       inkscape:collect="always"
       id="linearGradient859">
      <stop
         style="stop-color:#ff3fff;stop-opacity:1"
         offset="0"
         id="stop855" />
      <stop
         style="stop-color:#bb40c0;stop-opacity:1"
         offset="1"
         id="stop857" />
    </linearGradient>
    <linearGradient
       inkscape:collect="always"
       xlink:href="#linearGradient859"
       id="linearGradient861"
       x1="48"
       y1="1021.3622"
       x2="48"
       y2="1051.3622"
       gradientUnits="userSpaceOnUse" />
  </defs>
  <sodipodi:namedview
     id="base"
     pagecolor="#ffffff"
     bordercolor="#666666"
     borderopacity="1.0"
     inkscape:pageopacity="0.0"
     inkscape:pageshadow="2"
     inkscape:zoom="5.6568546"
     inkscape:cx="113.34467"
     inkscape:cy="11.736031"
     inkscape:document-units="px"
     inkscape:current-layer="layer1"
     showgrid="false"
     units="px"
     inkscape:object-nodes="true"
     inkscape:window-width="1920"
     inkscape:window-height="1001"
     inkscape:window-x="-9"
     inkscape:window-y="-9"
     inkscape:window-maximized="1"
     inkscape:snap-center="false"
     inkscape:snap-global="true"
     inkscape:snap-bbox="true"
     inkscape:snap-nodes="true"
     inkscape:bbox-nodes="true"
     borderlayer="false">
    <inkscape:grid
       type="xygrid"
       id="grid4147"
       empspacing="4"
       spacingx="1"
       spacingy="1"
       color="#ffd23f"
       opacity="0.27058824"
       empcolor="#ffa43f"
       empopacity="0.51372549"
       units="px" />
  </sodipodi:namedview>
  <metadata
     id="metadata7">
    <rdf:RDF>
      <cc:Work
         rdf:about="">
        <dc:format>image/svg+xml</dc:format>
        <dc:type
           rdf:resource="http://purl.org/dc/dcmitype/StillImage" />
        <dc:title />
      </cc:Work>
    </rdf:RDF>
  </metadata>
  <g
     inkscape:label="Layer 1"
     inkscape:groupmode="layer"
     id="layer1"
     transform="translate(0,-1020.3622)">
    <rect
       ry="3.0000174"
       rx="3.0000174"
       y="1021.3622"
       x="1"
       height="30.000017"
       width="94"
       id="rect848"
       style="opacity:1;fill:url(#linearGradient861);fill-opacity:1;stroke:none;stroke-width:4;stroke-linecap:round;stroke-linejoin:miter;stroke-miterlimit:4;stroke-dasharray:none;stroke-opacity:0.46629214" />
    <rect
       ry="4.0000172"
       rx="4.0000172"
       y="1020.3622"
       x="0"
       height="32"
       width="96"
       id="rect846"
       style="opacity:1;fill:none;fill-opacity:1;stroke:none;stroke-width:4;stroke-linecap:round;stroke-linejoin:miter;stroke-miterlimit:4;stroke-dasharray:none;stroke-opacity:0.46629214" />
    <path
       style="color:#000000;font-style:normal;font-variant:normal;font-weight:normal;font-stretch:normal;font-size:medium;line-height:normal;font-family:sans-serif;font-variant-ligatures:normal;font-variant-position:normal;font-variant-caps:normal;font-variant-numeric:normal;font-variant-alternates:normal;font-feature-settings:normal;text-indent:0;text-align:start;text-decoration:none;text-decoration-line:none;text-decoration-style:solid;text-decoration-color:#000000;letter-spacing:normal;word-spacing:normal;text-transform:none;writing-mode:lr-tb;direction:ltr;text-orientation:mixed;dominant-baseline:auto;baseline-shift:baseline;text-anchor:start;white-space:normal;shape-padding:0;clip-rule:nonzero;display:inline;overflow:visible;visibility:visible;opacity:1;isolation:auto;mix-blend-mode:normal;color-interpolation:sRGB;color-interpolation-filters:linearRGB;solid-color:#000000;solid-opacity:1;vector-effect:none;fill:#000000;fill-opacity:0.9044944;fill-rule:nonzero;stroke:none;stroke-width:4;stroke-linecap:round;stroke-linejoin:miter;stroke-miterlimit:4;stroke-dasharray:none;stroke-dashoffset:0;stroke-opacity:1;color-rendering:auto;image-rendering:auto;shape-rendering:auto;text-rendering:auto;enable-background:accumulate"
       d="M 4 0 C 1.7839905 0 0 1.7839905 0 4 L 0 28 C 0 30.21601 1.7839905 32 4 32 L 92 32 C 94.21601 32 96 30.21601 96 28 L 96 4 C 96 1.7839905 94.21601 0 92 0 L 4 0 z M 4 2 L 92 2 C 93.142604 2 94 2.8574 94 4 L 94 28 C 94 29.1426 93.142604 30 92 30 L 4 30 C 2.857396 30 2 29.1426 2 28 L 2 4 C 2 2.8574 2.857396 2 4 2 z "
       id="rect844"
       transform="translate(0,1020.3622)" />
    <path
       inkscape:connector-curvature="0"
       id="path843"
       style="font-style:normal;font-weight:bold;font-size:medium;line-height:1.25;font-family:sans-serif;letter-spacing:0px;word-spacing:0px;fill:none;fill-opacity:1;stroke:#000000;stroke-width:2;stroke-miterlimit:4;stroke-dasharray:none;stroke-opacity:1"
       d="m 14.035736,1041.5569 q -0.952376,0 -1.761322,-0.329 -0.80321,-0.3291 -1.382667,-0.9806 -0.579458,-0.6514 -0.900742,-1.6252 -0.3155458,-0.9738 -0.3155458,-2.2498 0,-1.1888 0.3040719,-2.1558 0.3040719,-0.9671 0.8835289,-1.6589 0.55651,-0.6649 1.37693,-1.0275 0.826159,-0.3627 1.801483,-0.3627 0.539298,0 0.969588,0.074 0.436028,0.067 0.80321,0.1813 0.384392,0.1277 0.694201,0.2888 0.315547,0.1545 0.550772,0.2888 v 2.4245 h -0.252437 q -0.160642,-0.1612 -0.407342,-0.3828 -0.240962,-0.2217 -0.550772,-0.4366 -0.315546,-0.2149 -0.682727,-0.3626 -0.367181,-0.1478 -0.785997,-0.1478 -0.464715,0 -0.883531,0.1746 -0.418816,0.1679 -0.774523,0.5642 -0.338494,0.3828 -0.550771,1.0141 -0.206539,0.6313 -0.206539,1.5312 0,0.9402 0.22375,1.5715 0.229488,0.6313 0.573722,0.994 0.349969,0.3694 0.78026,0.5305 0.430289,0.1545 0.849106,0.1545 0.401605,0 0.791734,-0.141 0.395868,-0.1411 0.728626,-0.3828 0.281123,-0.1948 0.522085,-0.4164 0.240963,-0.2217 0.395868,-0.3828 h 0.229488 v 2.3908 q -0.321284,0.1679 -0.613881,0.3157 -0.292598,0.1477 -0.613881,0.2552 -0.418817,0.141 -0.785997,0.2149 -0.367181,0.074 -1.009749,0.074 z" />
    <path
       inkscape:connector-curvature="0"
       id="path845"
       style="font-style:normal;font-weight:bold;font-size:medium;line-height:1.25;font-family:sans-serif;letter-spacing:0px;word-spacing:0px;fill:none;fill-opacity:1;stroke:#000000;stroke-width:2;stroke-miterlimit:4;stroke-dasharray:none;stroke-opacity:1"
       d="m 26.347783,1041.3622 h -2.203089 v -4.4057 h -3.252995 v 4.4057 h -2.203087 v -10 h 2.203087 v 3.6602 h 3.252995 v -3.6602 h 2.203089 z" />
    <path
       inkscape:connector-curvature="0"
       id="path847"
       style="font-style:normal;font-weight:bold;font-size:medium;line-height:1.25;font-family:sans-serif;letter-spacing:0px;word-spacing:0px;fill:none;fill-opacity:1;stroke:#000000;stroke-width:2;stroke-miterlimit:4;stroke-dasharray:none;stroke-opacity:1"
       d="m 36.428055,1041.3622 h -2.277672 l -0.590932,-2.0215 h -3.166938 l -0.590932,2.0215 h -2.220299 l 3.155463,-10 h 2.535846 z m -3.402164,-3.8549 -1.049908,-3.5863 -1.04991,3.5863 z" />
    <path
       inkscape:connector-curvature="0"
       id="path849"
       style="font-style:normal;font-weight:bold;font-size:medium;line-height:1.25;font-family:sans-serif;letter-spacing:0px;word-spacing:0px;fill:none;fill-opacity:1;stroke:#000000;stroke-width:2;stroke-miterlimit:4;stroke-dasharray:none;stroke-opacity:1"
       d="m 43.829053,1041.3622 h -6.161761 v -10 h 2.203088 v 8.0658 h 3.958673 z" />
    <path
       inkscape:connector-curvature="0"
       id="path851"
       style="font-style:normal;font-weight:bold;font-size:medium;line-height:1.25;font-family:sans-serif;letter-spacing:0px;word-spacing:0px;fill:none;fill-opacity:1;stroke:#000000;stroke-width:2;stroke-miterlimit:4;stroke-dasharray:none;stroke-opacity:1"
       d="m 51.31037,1041.3622 h -6.16176 v -10 h 2.203087 v 8.0658 h 3.958673 z" />
    <path
       inkscape:connector-curvature="0"
       id="path853"
       style="font-style:normal;font-weight:bold;font-size:medium;line-height:1.25;font-family:sans-serif;letter-spacing:0px;word-spacing:0px;fill:none;fill-opacity:1;stroke:#000000;stroke-width:2;stroke-miterlimit:4;stroke-dasharray:none;stroke-opacity:1"
       d="m 58.808898,1041.3622 h -6.178971 v -10 h 6.178971 v 1.9342 H 54.82154 v 1.726 h 3.700498 v 1.9341 H 54.82154 v 2.4715 h 3.987358 z" />
    <path
       inkscape:connector-curvature="0"
       id="path855"
       style="font-style:normal;font-weight:bold;font-size:medium;line-height:1.25;font-family:sans-serif;letter-spacing:0px;word-spacing:0px;fill:none;fill-opacity:1;stroke:#000000;stroke-width:2;stroke-miterlimit:4;stroke-dasharray:none;stroke-opacity:1"
       d="m 68.430195,1041.3622 h -2.122767 l -3.625915,-6.8637 v 6.8637 h -2.019497 v -10 h 2.633378 l 3.115303,5.7287 v -5.7287 h 2.019498 z" />
    <path
       inkscape:connector-curvature="0"
       id="path857"
       style="font-style:normal;font-weight:bold;font-size:medium;line-height:1.25;font-family:sans-serif;letter-spacing:0px;word-spacing:0px;fill:none;fill-opacity:1;stroke:#000000;stroke-width:2;stroke-miterlimit:4;stroke-dasharray:none;stroke-opacity:1"
       d="m 78.177707,1040.7913 q -0.573721,0.2619 -1.520361,0.5239 -0.946639,0.2552 -1.88754,0.2552 -2.180139,0 -3.413638,-1.3835 -1.2335,-1.3902 -1.2335,-3.8348 0,-2.3304 1.244974,-3.7542 1.244974,-1.4305 3.47101,-1.4305 0.84337,0 1.606418,0.1814 0.763048,0.1746 1.698213,0.7051 v 2.3439 h -0.246699 q -0.160643,-0.1411 -0.470452,-0.3963 -0.309808,-0.2619 -0.59667,-0.4432 -0.332757,-0.2149 -0.78026,-0.3694 -0.441764,-0.1545 -0.940901,-0.1545 -0.585195,0 -1.061383,0.2015 -0.476188,0.2015 -0.854844,0.6179 -0.361445,0.4029 -0.573721,1.0275 -0.20654,0.6179 -0.20654,1.4305 0,1.6588 0.751575,2.5386 0.751574,0.8798 2.220299,0.8798 0.126218,0 0.275386,-0.01 0.154904,-0.01 0.281123,-0.02 v -1.9611 h -1.70395 v -1.8871 h 3.941461 z" />
    <path
       inkscape:connector-curvature="0"
       id="path859"
       style="font-style:normal;font-weight:bold;font-size:medium;line-height:1.25;font-family:sans-serif;letter-spacing:0px;word-spacing:0px;fill:none;fill-opacity:1;stroke:#000000;stroke-width:2;stroke-miterlimit:4;stroke-dasharray:none;stroke-opacity:1"
       d="m 86.324541,1041.3622 h -6.178972 v -10 h 6.178972 v 1.9342 h -3.98736 v 1.726 h 3.7005 v 1.9341 h -3.7005 v 2.4715 h 3.98736 z" />
    <path
       inkscape:connector-curvature="0"
       id="path824"
       style="font-style:normal;font-weight:bold;font-size:medium;line-height:1.25;font-family:sans-serif;letter-spacing:0px;word-spacing:0px;fill:#ffffff;fill-opacity:1;stroke:none;stroke-width:1;stroke-miterlimit:4;stroke-dasharray:none;stroke-opacity:1"
       d="m 14.035736,1041.5569 q -0.952376,0 -1.761322,-0.329 -0.80321,-0.3291 -1.382667,-0.9806 -0.579458,-0.6514 -0.900742,-1.6252 -0.3155458,-0.9738 -0.3155458,-2.2498 0,-1.1888 0.3040719,-2.1558 0.3040719,-0.9671 0.8835289,-1.6589 0.55651,-0.6649 1.37693,-1.0275 0.826159,-0.3627 1.801483,-0.3627 0.539298,0 0.969588,0.074 0.436028,0.067 0.80321,0.1813 0.384392,0.1277 0.694201,0.2888 0.315547,0.1545 0.550772,0.2888 v 2.4245 h -0.252437 q -0.160642,-0.1612 -0.407342,-0.3828 -0.240962,-0.2217 -0.550772,-0.4366 -0.315546,-0.2149 -0.682727,-0.3626 -0.367181,-0.1478 -0.785997,-0.1478 -0.464715,0 -0.883531,0.1746 -0.418816,0.1679 -0.774523,0.5642 -0.338494,0.3828 -0.550771,1.0141 -0.206539,0.6313 -0.206539,1.5312 0,0.9402 0.22375,1.5715 0.229488,0.6313 0.573722,0.994 0.349969,0.3694 0.78026,0.5305 0.430289,0.1545 0.849106,0.1545 0.401605,0 0.791734,-0.141 0.395868,-0.1411 0.728626,-0.3828 0.281123,-0.1948 0.522085,-0.4164 0.240963,-0.2217 0.395868,-0.3828 h 0.229488 v 2.3908 q -0.321284,0.1679 -0.613881,0.3157 -0.292598,0.1477 -0.613881,0.2552 -0.418817,0.141 -0.785997,0.2149 -0.367181,0.074 -1.009749,0.074 z" />
    <path
       inkscape:connector-curvature="0"
       id="path826"
       style="font-style:normal;font-weight:bold;font-size:medium;line-height:1.25;font-family:sans-serif;letter-spacing:0px;word-spacing:0px;fill:#ffffff;fill-opacity:1;stroke:none;stroke-width:1;stroke-miterlimit:4;stroke-dasharray:none;stroke-opacity:1"
       d="m 26.347783,1041.3622 h -2.203089 v -4.4057 h -3.252995 v 4.4057 h -2.203087 v -10 h 2.203087 v 3.6602 h 3.252995 v -3.6602 h 2.203089 z" />
    <path
       inkscape:connector-curvature="0"
       id="path828"
       style="font-style:normal;font-weight:bold;font-size:medium;line-height:1.25;font-family:sans-serif;letter-spacing:0px;word-spacing:0px;fill:#ffffff;fill-opacity:1;stroke:none;stroke-width:1;stroke-miterlimit:4;stroke-dasharray:none;stroke-opacity:1"
       d="m 36.428055,1041.3622 h -2.277672 l -0.590932,-2.0215 h -3.166938 l -0.590932,2.0215 h -2.220299 l 3.155463,-10 h 2.535846 z m -3.402164,-3.8549 -1.049908,-3.5863 -1.04991,3.5863 z" />
    <path
       inkscape:connector-curvature="0"
       id="path830"
       style="font-style:normal;font-weight:bold;font-size:medium;line-height:1.25;font-family:sans-serif;letter-spacing:0px;word-spacing:0px;fill:#ffffff;fill-opacity:1;stroke:none;stroke-width:1;stroke-miterlimit:4;stroke-dasharray:none;stroke-opacity:1"
       d="m 43.829053,1041.3622 h -6.161761 v -10 h 2.203088 v 8.0658 h 3.958673 z" />
    <path
       inkscape:connector-curvature="0"
       id="path832"
       style="font-style:normal;font-weight:bold;font-size:medium;line-height:1.25;font-family:sans-serif;letter-spacing:0px;word-spacing:0px;fill:#ffffff;fill-opacity:1;stroke:none;stroke-width:1;stroke-miterlimit:4;stroke-dasharray:none;stroke-opacity:1"
       d="m 51.31037,1041.3622 h -6.16176 v -10 h 2.203087 v 8.0658 h 3.958673 z" />
    <path
       inkscape:connector-curvature="0"
       id="path834"
       style="font-style:normal;font-weight:bold;font-size:medium;line-height:1.25;font-family:sans-serif;letter-spacing:0px;word-spacing:0px;fill:#ffffff;fill-opacity:1;stroke:none;stroke-width:1;stroke-miterlimit:4;stroke-dasharray:none;stroke-opacity:1"
       d="m 58.808898,1041.3622 h -6.178971 v -10 h 6.178971 v 1.9342 H 54.82154 v 1.726 h 3.700498 v 1.9341 H 54.82154 v 2.4715 h 3.987358 z" />
    <path
       inkscape:connector-curvature="0"
       id="path836"
       style="font-style:normal;font-weight:bold;font-size:medium;line-height:1.25;font-family:sans-serif;letter-spacing:0px;word-spacing:0px;fill:#ffffff;fill-opacity:1;stroke:none;stroke-width:1;stroke-miterlimit:4;stroke-dasharray:none;stroke-opacity:1"
       d="m 68.430195,1041.3622 h -2.122767 l -3.625915,-6.8637 v 6.8637 h -2.019497 v -10 h 2.633378 l 3.115303,5.7287 v -5.7287 h 2.019498 z" />
    <path
       inkscape:connector-curvature="0"
       id="path838"
       style="font-style:normal;font-weight:bold;font-size:medium;line-height:1.25;font-family:sans-serif;letter-spacing:0px;word-spacing:0px;fill:#ffffff;fill-opacity:1;stroke:none;stroke-width:1;stroke-miterlimit:4;stroke-dasharray:none;stroke-opacity:1"
       d="m 78.177707,1040.7913 q -0.573721,0.2619 -1.520361,0.5239 -0.946639,0.2552 -1.88754,0.2552 -2.180139,0 -3.413638,-1.3835 -1.2335,-1.3902 -1.2335,-3.8348 0,-2.3304 1.244974,-3.7542 1.244974,-1.4305 3.47101,-1.4305 0.84337,0 1.606418,0.1814 0.763048,0.1746 1.698213,0.7051 v 2.3439 h -0.246699 q -0.160643,-0.1411 -0.470452,-0.3963 -0.309808,-0.2619 -0.59667,-0.4432 -0.332757,-0.2149 -0.78026,-0.3694 -0.441764,-0.1545 -0.940901,-0.1545 -0.585195,0 -1.061383,0.2015 -0.476188,0.2015 -0.854844,0.6179 -0.361445,0.4029 -0.573721,1.0275 -0.20654,0.6179 -0.20654,1.4305 0,1.6588 0.751575,2.5386 0.751574,0.8798 2.220299,0.8798 0.126218,0 0.275386,-0.01 0.154904,-0.01 0.281123,-0.02 v -1.9611 h -1.70395 v -1.8871 h 3.941461 z" />
    <path
       inkscape:connector-curvature="0"
       id="path840"
       style="font-style:normal;font-weight:bold;font-size:medium;line-height:1.25;font-family:sans-serif;letter-spacing:0px;word-spacing:0px;fill:#ffffff;fill-opacity:1;stroke:none;stroke-width:1;stroke-miterlimit:4;stroke-dasharray:none;stroke-opacity:1"
       d="m 86.324541,1041.3622 h -6.178972 v -10 h 6.178972 v 1.9342 h -3.98736 v 1.726 h 3.7005 v 1.9341 h -3.7005 v 2.4715 h 3.98736 z" />
  </g>
</svg>
